# File created by Blade
# Date/Time:  Tue Apr 07 21:33:03 2015
# Frame Rate: 120.000 fps
#------------------------------------------------------
:FULLY-SPECIFIED
:DEGREES
789
root 0.257613 40.476065 1.797244 1.546243 -27.047095 40.473158
Spine -8.165579 -32.687304 -25.638620
Head 7.226273 -13.365292 -14.495954
LeftShoulder -17.489176 33.243259 18.942464
LeftArm 58.281239 -62.300530 -60.208403
LeftForeArm 6.087754 0.000000 -2.033503
LeftHand 19.397800 0.000000 36.738790
LeftHandThumb1 -26.253704 0.000000 33.147579
RightShoulder -14.929293 -1.966397 -39.544630
RightArm -7.014486 28.628881 36.548928
RightForeArm 5.425122 0.000000 14.761659
RightHand 16.723838 0.000000 -21.208838
RightHandThumb1 -24.326973 -0.000000 -32.862282
LeftUpLeg 11.168843 7.513684 31.604588
LeftLeg 21.013539 -0.000000 -0.000000
LeftFoot 30.803174 25.004286 -13.035147
LeftToeBase 25.735165 -0.000000 -0.000000
RightUpLeg -79.931487 -48.005818 -15.391723
RightLeg 15.316369 -0.000000 -0.000000
RightFoot 42.701017 -13.187141 -3.858653
RightToeBase 21.984903 -0.000000 -0.000000
790
root -0.225982 40.181533 2.027592 1.018491 -26.092037 40.200508
Spine -7.737023 -33.064636 -26.570111
Head 9.407973 -12.702751 -14.058692
LeftShoulder -17.783050 33.180013 18.325542
LeftArm 55.468568 -60.903798 -58.621262
LeftForeArm 6.287138 -0.000000 -2.445355
LeftHand 18.649681 -0.000000 36.225471
LeftHandThumb1 -26.253704 0.000000 33.147579
RightShoulder -14.823463 -2.016736 -38.969879
RightArm -6.729788 29.235451 37.369020
RightForeArm 6.261246 0.000000 15.526744
RightHand 16.927440 -0.000000 -21.137085
RightHandThumb1 -24.326973 -0.000000 -32.862282
LeftUpLeg 10.421711 7.577650 31.825716
LeftLeg 21.078551 -0.000000 -0.000000
LeftFoot 31.271283 24.598826 -12.753280
LeftToeBase 25.359490 -0.000000 -0.000000
RightUpLeg -73.502987 -47.970629 -17.835258
RightLeg 15.591833 -0.000000 -0.000000
RightFoot 42.164581 -12.853225 -2.079404
RightToeBase 20.697714 -0.000000 -0.000000
791
root -0.716795 39.844243 2.262490 0.521666 -25.372834 39.733682
Spine -7.361105 -33.146507 -27.219976
Head 11.391402 -12.239098 -13.707545
LeftShoulder -18.125722 33.553423 17.644586
LeftArm 52.905767 -59.421250 -57.263914
LeftForeArm 5.976988 -0.000000 -2.646433
LeftHand 18.791931 0.000000 35.341995
LeftHandThumb1 -26.253704 0.000000 33.147579
RightShoulder -14.758108 -1.967612 -38.532976
RightArm -6.692002 30.159975 38.098344
RightForeArm 6.509372 -0.000000 16.612750
RightHand 17.077366 -0.000000 -21.659191
RightHandThumb1 -24.326973 -0.000000 -32.862282
LeftUpLeg 9.872047 7.004876 32.032610
LeftLeg 21.273142 -0.000000 -0.000000
LeftFoot 31.612087 24.467776 -12.549734
LeftToeBase 25.154051 -0.000000 -0.000000
RightUpLeg -67.512217 -47.507518 -19.614245
RightLeg 15.780649 -0.000000 -0.000000
RightFoot 41.375440 -12.786710 -0.031442
RightToeBase 18.947008 -0.000000 -0.000000
792
root -1.207094 39.465687 2.497990 0.063913 -24.906862 39.092774
Spine -7.027985 -32.945974 -27.604619
Head 13.031398 -11.854574 -13.257364
LeftShoulder -18.580193 34.029297 16.929168
LeftArm 50.713241 -57.761859 -56.136493
LeftForeArm 5.067773 -0.000000 -3.003246
LeftHand 19.229317 -0.000000 35.663112
LeftHandThumb1 -26.253704 0.000000 33.147579
RightShoulder -14.769446 -2.020535 -38.096580
RightArm -6.614409 31.393176 38.805943
RightForeArm 6.488599 -0.000000 17.877136
RightHand 17.112308 -0.000000 -22.439839
RightHandThumb1 -24.326973 -0.000000 -32.862282
LeftUpLeg 9.467700 6.252892 32.369817
LeftLeg 21.694449 -0.000000 -0.000000
LeftFoot 31.866373 24.362188 -12.352054
LeftToeBase 25.096765 -0.000000 -0.000000
RightUpLeg -61.940002 -46.641431 -20.868300
RightLeg 15.941852 -0.000000 -0.000000
RightFoot 40.523849 -12.917631 2.310302
RightToeBase 17.143148 -0.000000 -0.000000
793
root -1.700551 39.046832 2.723941 -0.297538 -24.694104 38.277242
Spine -6.776303 -32.527260 -27.713653
Head 14.314495 -11.587086 -12.737573
LeftShoulder -19.375040 34.991749 16.026769
LeftArm 50.312610 -56.565952 -56.792411
LeftForeArm 4.161637 0.000000 -3.148028
LeftHand 19.575795 0.000000 35.803007
LeftHandThumb1 -26.253704 0.000000 33.147579
RightShoulder -14.849986 -2.065550 -37.648239
RightArm -6.501515 32.704020 39.461684
RightForeArm 6.545863 0.000000 19.184190
RightHand 17.413957 -0.000000 -23.425518
RightHandThumb1 -24.326973 -0.000000 -32.862282
LeftUpLeg 9.176902 5.375475 32.844731
LeftLeg 22.261993 -0.000000 -0.000000
LeftFoot 32.295138 24.135188 -11.932338
LeftToeBase 24.103125 -0.000000 -0.000000
RightUpLeg -56.964320 -45.392476 -21.477009
RightLeg 16.201696 -0.000000 -0.000000
RightFoot 39.846548 -13.119658 4.527276
RightToeBase 15.734152 -0.000000 -0.000000
794
root -2.193697 38.585095 2.945107 -0.578281 -24.624265 37.256761
Spine -6.548677 -31.979785 -27.555684
Head 15.388623 -11.472018 -12.147634
LeftShoulder -20.026374 35.863366 15.302445
LeftArm 49.889242 -55.580600 -57.683481
LeftForeArm 3.184309 -0.000000 -3.162245
LeftHand 19.768246 -0.000000 36.318293
LeftHandThumb1 -26.253704 0.000000 33.147579
RightShoulder -14.940838 -2.238227 -37.117073
RightArm -6.197486 34.067096 40.049723
RightForeArm 6.558548 -0.000000 20.422423
RightHand 17.549246 0.000000 -23.780893
RightHandThumb1 -24.326973 -0.000000 -32.862282
LeftUpLeg 8.995688 4.325027 33.503366
LeftLeg 22.794307 -0.000000 -0.000000
LeftFoot 32.433738 24.240486 -11.911072
LeftToeBase 23.890060 -0.000000 -0.000000
RightUpLeg -52.290312 -43.794598 -21.725772
RightLeg 16.498448 -0.000000 -0.000000
RightFoot 39.571273 -13.110242 6.312486
RightToeBase 15.198647 -0.000000 -0.000000
795
root -2.686939 38.083119 3.166257 -0.812793 -24.720118 36.157634
Spine -6.390722 -31.339060 -27.249047
Head 16.247919 -11.467538 -11.444360
LeftShoulder -20.573251 36.441389 14.851185
LeftArm 49.760322 -54.996449 -59.237963
LeftForeArm 2.398696 -0.000000 -3.035080
LeftHand 19.758249 -0.000000 36.295775
LeftHandThumb1 -26.253704 0.000000 33.147579
RightShoulder -15.004768 -2.450149 -36.502479
RightArm -5.633854 35.214054 40.554291
RightForeArm 6.604855 -0.000000 21.379635
RightHand 17.631416 -0.000000 -24.569785
RightHandThumb1 -24.326973 -0.000000 -32.862282
LeftUpLeg 8.967904 3.243773 34.245207
LeftLeg 23.207822 -0.000000 -0.000000
LeftFoot 32.481212 24.388647 -11.897002
LeftToeBase 23.957887 -0.000000 -0.000000
RightUpLeg -48.021438 -41.859585 -21.664678
RightLeg 16.953933 -0.000000 -0.000000
RightFoot 39.694910 -12.939575 7.377688
RightToeBase 14.022763 -0.000000 -0.000000
796
root -3.173431 37.544144 3.381132 -0.971506 -24.913331 35.009367
Spine -6.314466 -30.663538 -26.830652
Head 17.013947 -11.625225 -10.671643
LeftShoulder -20.919389 36.958636 14.668814
LeftArm 49.717099 -54.788739 -61.090797
LeftForeArm 2.192070 -0.000000 -2.963894
LeftHand 19.545857 -0.000000 35.687586
LeftHandThumb1 -26.253704 0.000000 33.147579
RightShoulder -14.980645 -2.592716 -35.848435
RightArm -4.989369 36.129215 40.871334
RightForeArm 6.732357 -0.000000 22.056228
RightHand 17.658683 -0.000000 -24.894882
RightHandThumb1 -24.326973 -0.000000 -32.862282
LeftUpLeg 8.956083 2.307338 35.080858
LeftLeg 23.572737 -0.000000 -0.000000
LeftFoot 32.392397 24.555397 -11.883058
LeftToeBase 23.074812 -0.000000 -0.000000
RightUpLeg -43.929780 -39.424656 -21.521639
RightLeg 17.342554 -0.000000 -0.000000
RightFoot 39.884242 -13.228410 8.052584
RightToeBase 13.016306 -0.000000 -0.000000
797
root -3.648088 36.974513 3.600275 -1.160365 -25.139365 34.056549
Spine -6.331286 -30.058555 -26.523421
Head 17.700315 -11.852812 -9.917727
LeftShoulder -21.426913 37.580711 14.371277
LeftArm 50.096041 -54.717201 -62.946890
LeftForeArm 1.997271 -0.000000 -3.213022
LeftHand 19.126045 -0.000000 34.648431
LeftHandThumb1 -26.253704 0.000000 33.147579
RightShoulder -14.814961 -2.660453 -35.236623
RightArm -4.289898 36.768813 41.062489
RightForeArm 6.801953 -0.000000 22.479523
RightHand 17.830647 -0.000000 -25.521491
RightHandThumb1 -24.326973 -0.000000 -32.862282
LeftUpLeg 9.027386 1.255164 35.654055
LeftLeg 23.766640 -0.000000 -0.000000
LeftFoot 32.018407 24.787211 -11.747312
LeftToeBase 22.915064 -0.000000 -0.000000
RightUpLeg -40.299355 -36.846506 -21.320007
RightLeg 18.019516 -0.000000 -0.000000
RightFoot 39.977520 -13.671167 8.709634
RightToeBase 11.106331 -0.000000 -0.000000
798
root -4.111628 36.375793 3.809084 -1.231064 -25.427216 33.197382
Spine -6.554040 -29.420076 -26.191963
Head 18.373872 -12.166235 -9.179584
LeftShoulder -21.737000 38.134616 14.215438
LeftArm 50.535203 -54.889174 -64.744380
LeftForeArm 2.031941 -0.000000 -3.562334
LeftHand 18.798466 -0.000000 33.624304
LeftHandThumb1 -26.253704 0.000000 33.147579
RightShoulder -14.602547 -2.694524 -34.667350
RightArm -3.613816 37.249479 41.124057
RightForeArm 6.679208 -0.000000 22.794546
RightHand 17.937990 -0.000000 -25.601994
RightHandThumb1 -24.326973 -0.000000 -32.862282
LeftUpLeg 9.050840 0.363716 36.136090
LeftLeg 23.772209 -0.000000 -0.000000
LeftFoot 31.533187 25.242646 -11.565865
LeftToeBase 22.133785 -0.000000 -0.000000
RightUpLeg -37.273356 -34.032325 -20.846786
RightLeg 19.283673 -0.000000 -0.000000
RightFoot 38.109406 -12.641344 7.877205
RightToeBase -26.162142 -0.000000 0.000000
